<svg width="280" height="56" viewBox="0 0 280 56" fill="none" xmlns="http://www.w3.org/2000/svg">
<path d="M78.5781 23.7949H83.1006L83.0928 35.4019H78.5781V23.7949Z" fill="white"/>
<path d="M67.7656 23.7949H72.2881L72.2803 33.6132H76.7169V35.4019H67.7656V23.7949Z" fill="white"/>
<path d="M57.0733 26.724L55.7299 23.7949H60.4867L66.173 35.4097H61.0725L60.2133 33.5507H55.6361L54.7847 35.4097H52.8086L57.0733 26.724ZM59.3932 31.762L57.9247 28.5752L56.4641 31.762H59.3932Z" fill="white"/>
<path d="M38.9609 23.7949H43.7334C45.0769 23.7949 46.2407 23.9225 47.2249 24.1777C48.209 24.4276 49.024 24.7973 49.6697 25.2868C50.3154 25.7763 50.7944 26.3777 51.1069 27.0911C51.4193 27.8045 51.5755 28.622 51.5755 29.5437C51.5755 30.3665 51.4193 31.1346 51.1069 31.8479C50.7944 32.5561 50.3154 33.1758 49.6697 33.7069C49.024 34.2329 48.209 34.6468 47.2249 34.9489C46.2407 35.2509 45.0769 35.4019 43.7334 35.4019H38.9609V23.7949ZM43.4756 33.6991C43.9964 33.6991 44.465 33.6184 44.8816 33.457C45.2982 33.2956 45.6497 33.0456 45.9361 32.7071C46.2277 32.3687 46.449 31.9391 46.6 31.4183C46.7562 30.8924 46.8343 30.2649 46.8343 29.5359C46.8343 28.8121 46.7562 28.1951 46.6 27.6847C46.4438 27.1744 46.2199 26.7579 45.9282 26.435C45.6366 26.1069 45.2825 25.87 44.866 25.7242C44.4546 25.5732 43.9937 25.4977 43.4834 25.4977L43.4756 33.6991Z" fill="white"/>
<path d="M28.9543 32.1291L25.0176 23.7949H29.9619L32.8207 29.7781L35.1249 23.7949H37.1713L33.7033 32.1291V35.4019H28.9543V32.1291Z" fill="white"/>
<path d="M10.7715 29.5749C10.7715 28.6949 10.9121 27.8904 11.1933 27.1614C11.4745 26.4272 11.8936 25.7971 12.4508 25.2711C13.008 24.7452 13.7032 24.3364 14.5363 24.0448C15.3695 23.7532 16.338 23.6074 17.442 23.6074C18.5459 23.6074 19.5145 23.7532 20.3476 24.0448C21.1808 24.3364 21.876 24.7452 22.4331 25.2711C22.9903 25.7971 23.4095 26.4272 23.6907 27.1614C23.9719 27.8904 24.1125 28.6949 24.1125 29.5749C24.1125 30.4654 23.9719 31.2803 23.6907 32.0197C23.4095 32.7592 22.9903 33.3919 22.4331 33.9178C21.876 34.4437 21.1808 34.8525 20.3476 35.1441C19.5145 35.4357 18.5459 35.5815 17.442 35.5815C16.338 35.5815 15.3695 35.4357 14.5363 35.1441C13.7032 34.8525 13.008 34.4437 12.4508 33.9178C11.8936 33.3919 11.4745 32.7592 11.1933 32.0197C10.9121 31.2803 10.7715 30.4654 10.7715 29.5749ZM17.442 33.9647C17.7544 33.9647 18.0304 33.91 18.2699 33.8006C18.5095 33.6913 18.7099 33.4778 18.8714 33.1601C19.0328 32.8425 19.1552 32.3973 19.2385 31.8245C19.3218 31.2517 19.3635 30.5018 19.3635 29.5749C19.3635 28.6585 19.3218 27.9164 19.2385 27.3488C19.1552 26.7812 19.0328 26.3412 18.8714 26.0288C18.7099 25.7164 18.5095 25.5055 18.2699 25.3961C18.0304 25.2868 17.7544 25.2321 17.442 25.2321C17.1295 25.2321 16.851 25.2868 16.6062 25.3961C16.3667 25.5055 16.1662 25.7164 16.0048 26.0288C15.8434 26.3412 15.721 26.7812 15.6377 27.3488C15.5543 27.9164 15.5127 28.6585 15.5127 29.5749C15.5127 30.5018 15.5543 31.2517 15.6377 31.8245C15.721 32.3973 15.8434 32.8425 16.0048 33.1601C16.1662 33.4778 16.3667 33.6913 16.6062 33.8006C16.851 33.91 17.1295 33.9647 17.442 33.9647Z" fill="white"/>
<path d="M0 23.7949H9.52147V25.5836H4.5225L4.51469 28.9501H8.18581V30.7388H4.51469V35.4019H0V23.7949Z" fill="white"/>
<path d="M111.359 7.98205C110.796 7.9886 110.352 7.55173 110.352 6.99106C110.352 6.44169 110.782 6.00601 111.33 6.00006C111.897 5.99411 112.336 6.42562 112.336 6.99165C112.337 7.53863 111.906 7.9761 111.359 7.98205Z" fill="#F07448"/>
<path d="M115.394 7.68683C114.487 7.67195 113.784 8.35464 113.774 9.2635H113.774C113.763 10.1456 114.451 10.8539 115.339 10.8759C116.219 10.8979 116.955 10.1813 116.967 9.29088C116.977 8.41475 116.278 7.70112 115.394 7.68683Z" fill="#F07448"/>
<path d="M121.933 13.4287C121.928 14.6125 120.995 15.5356 119.811 15.5291C118.654 15.5226 117.719 14.5833 117.713 13.4221C117.707 12.2508 118.655 11.3056 119.833 11.3086C121.018 11.311 121.938 12.2395 121.934 13.4293L121.933 13.4287Z" fill="#F07448"/>
<path d="M115.18 20.3745C113.752 20.3442 112.68 19.2401 112.718 17.8361C112.754 16.5064 113.885 15.4297 115.224 15.4493C116.589 15.469 117.686 16.607 117.654 17.97C117.622 19.3312 116.519 20.4031 115.18 20.3745Z" fill="#F07448"/>
<path d="M122.299 17.7569C120.945 17.7563 119.843 18.8568 119.84 20.2127C119.836 21.5882 120.916 22.6952 122.288 22.7202C123.631 22.7452 124.774 21.6132 124.779 20.2538C124.784 18.861 123.688 17.7569 122.299 17.7569Z" fill="#F07448"/>
<path d="M110.538 20.2603C110.548 18.8794 109.464 17.7694 108.094 17.7575C106.723 17.7456 105.599 18.8443 105.591 20.2037C105.584 21.5739 106.693 22.7113 108.039 22.7161C109.411 22.7208 110.529 21.6233 110.538 20.2603Z" fill="#F07448"/>
<path d="M112.711 42.1699C112.696 40.8052 113.788 39.6945 115.172 39.6683C116.519 39.6427 117.652 40.7659 117.663 42.1384C117.674 43.4907 116.576 44.6073 115.218 44.6245C113.852 44.6418 112.727 43.5407 112.711 42.1699Z" fill="#F07448"/>
<path d="M126.703 31.3065C125.33 31.313 124.24 32.3981 124.24 33.7605C124.24 35.1484 125.32 36.2424 126.701 36.2519C128.071 36.2609 129.18 35.1544 129.18 33.7771C129.18 32.3927 128.084 31.2999 126.703 31.3065Z" fill="#F07448"/>
<path d="M103.691 31.3065C105.089 31.3231 106.16 32.4308 106.139 33.8378C106.119 35.1848 104.993 36.2662 103.626 36.2531C102.262 36.24 101.172 35.1092 101.194 33.7295C101.216 32.3677 102.326 31.2904 103.691 31.3065Z" fill="#F07448"/>
<path d="M101.205 26.2807C101.2 27.6603 102.292 28.7549 103.673 28.7543C105.035 28.7531 106.13 27.6585 106.132 26.2961C106.134 24.9325 105.037 23.8225 103.689 23.8225C102.301 23.8231 101.211 24.9016 101.205 26.2807Z" fill="#F07448"/>
<path d="M119.849 39.835C119.845 38.4678 120.931 37.3727 122.293 37.3721C123.673 37.3715 124.766 38.444 124.771 39.8046C124.776 41.2009 123.667 42.3217 122.293 42.3098C120.935 42.2979 119.854 41.2033 119.849 39.835Z" fill="#F07448"/>
<path d="M124.25 26.3836C124.282 27.7079 125.408 28.7817 126.73 28.7483V28.7489C128.149 28.7132 129.204 27.6216 129.171 26.2229C129.138 24.8415 128.014 23.7927 126.598 23.8249C125.266 23.8546 124.216 24.9986 124.25 26.3836Z" fill="#F07448"/>
<path d="M108.079 42.3104C109.433 42.305 110.523 41.2027 110.525 39.8373C110.527 38.4607 109.454 37.3774 108.084 37.3732C106.709 37.3691 105.612 38.444 105.605 39.8022C105.597 41.1938 106.704 42.3157 108.079 42.3104Z" fill="#F07448"/>
<path d="M101.633 42.8544C100.457 42.8437 99.5401 41.8973 99.555 40.7087C99.5693 39.5624 100.516 38.6255 101.652 38.6345C102.858 38.6434 103.79 39.5808 103.778 40.7724C103.766 41.9491 102.822 42.8651 101.633 42.8544Z" fill="#F07448"/>
<path d="M132.437 31.4267C133.589 31.4285 134.537 30.4792 134.537 29.3239C134.537 28.1377 133.611 27.2056 132.429 27.2038C131.245 27.2014 130.323 28.1246 130.316 29.3173C130.309 30.4875 131.252 31.4249 132.437 31.4267Z" fill="#F07448"/>
<path d="M123.304 46.2077C123.305 45.0221 122.376 44.0894 121.196 44.0924H121.195C120.018 44.0948 119.082 45.0376 119.085 46.216C119.089 47.3832 120.04 48.3218 121.218 48.3189C122.369 48.3159 123.304 47.3707 123.304 46.2077Z" fill="#F07448"/>
<path d="M98.7158 20.4918C98.7158 19.3133 99.6282 18.3824 100.792 18.3741C101.971 18.3652 102.934 19.3056 102.936 20.4668C102.939 21.6364 101.993 22.5982 100.832 22.6071C99.6633 22.6161 98.7158 21.6691 98.7158 20.4918Z" fill="#F07448"/>
<path d="M97.9265 28.6519C96.7653 28.6567 95.8463 29.5929 95.8523 30.7654C95.8582 31.9475 96.7909 32.8653 97.9789 32.8575C99.127 32.8504 100.075 31.8915 100.069 30.7434C100.063 29.5804 99.1062 28.6471 97.9265 28.6519Z" fill="#F07448"/>
<path d="M111.28 13.8512C111.283 15.0214 110.364 15.9535 109.2 15.9594C108.013 15.9654 107.069 15.0416 107.068 13.8721C107.067 12.6972 108.007 11.7532 109.179 11.7526C110.332 11.7526 111.276 12.6954 111.28 13.8512Z" fill="#F07448"/>
<path d="M110.48 48.7492C111.705 48.7581 112.642 47.8576 112.651 46.6636V46.663C112.66 45.4964 111.735 44.5584 110.567 44.5495C109.398 44.5406 108.446 45.4673 108.439 46.6208C108.432 47.7796 109.354 48.7408 110.48 48.7492Z" fill="#F07448"/>
<path d="M130.805 19.3133C130.809 20.4924 129.897 21.4138 128.72 21.4185C127.537 21.4233 126.602 20.4942 126.599 19.3098C126.596 18.1587 127.544 17.2159 128.709 17.2111C129.874 17.2064 130.8 18.136 130.804 19.3133H130.805Z" fill="#F07448"/>
<path d="M129.606 37.484C128.415 37.459 127.482 38.3571 127.455 39.5565C127.428 40.7141 128.353 41.6634 129.526 41.6831C130.687 41.7021 131.639 40.7855 131.667 39.6207C131.696 38.4643 130.774 37.509 129.606 37.484Z" fill="#F07448"/>
<path d="M104.436 46.7148C104.437 47.6088 103.728 48.3218 102.839 48.3224C101.965 48.3224 101.222 47.5749 101.233 46.7065C101.244 45.8357 101.963 45.1221 102.832 45.1173C103.727 45.1126 104.435 45.8173 104.436 46.7148Z" fill="#F07448"/>
<path d="M95.4922 21.8506C94.6077 21.8566 93.909 22.556 93.9072 23.4368C93.9054 24.3344 94.6065 25.0433 95.5005 25.0474C96.385 25.0516 97.1081 24.329 97.1052 23.4434C97.1022 22.5518 96.3856 21.8447 95.4922 21.8506Z" fill="#F07448"/>
<path d="M128.835 46.9291C128.836 47.8332 128.143 48.5236 127.234 48.523C126.362 48.523 125.641 47.8123 125.634 46.9445C125.626 46.0666 126.349 45.3363 127.235 45.3256C128.118 45.3149 128.834 46.0321 128.835 46.9291Z" fill="#F07448"/>
<path d="M127.525 14.9363C126.644 14.9351 125.943 14.2316 125.943 13.3489C125.943 12.468 126.646 11.758 127.524 11.7526C128.413 11.7466 129.131 12.4686 129.124 13.3608C129.116 14.2405 128.409 14.9375 127.526 14.9363H127.525Z" fill="#F07448"/>
<path d="M134.989 25.3891C135.874 25.3783 136.576 24.673 136.575 23.7963C136.575 22.9083 135.877 22.1988 135.003 22.1959C134.107 22.1929 133.394 22.8785 133.383 23.7535C133.373 24.6617 134.097 25.4004 134.989 25.3891Z" fill="#F07448"/>
<path d="M136.453 36.6317C136.45 37.5179 135.752 38.2095 134.862 38.2054C133.977 38.2018 133.28 37.4989 133.285 36.615C133.289 35.727 133.988 35.0217 134.865 35.0205C135.766 35.0199 136.456 35.7192 136.453 36.6311V36.6317Z" fill="#F07448"/>
<path d="M101.543 13.1519C101.547 14.0155 102.248 14.7167 103.114 14.7214V14.7208C104.022 14.7262 104.725 14.0322 104.724 13.1346C104.721 12.2466 104.027 11.552 103.14 11.5502C102.24 11.5484 101.539 12.2508 101.543 13.1519Z" fill="#F07448"/>
<path d="M95.3892 37.8566C94.4994 37.853 93.7959 37.1501 93.8024 36.2722C93.809 35.3818 94.506 34.6925 95.3981 34.6931C96.2892 34.6937 96.9843 35.3889 96.9849 36.2793C96.9849 37.1596 96.2772 37.8601 95.3898 37.8566H95.3892Z" fill="#F07448"/>
<path d="M114.968 52.3739C115.876 52.39 116.577 51.7085 116.591 50.7973C116.604 49.9313 115.916 49.217 115.048 49.1938C114.157 49.1706 113.437 49.8717 113.424 50.7758C113.411 51.6436 114.102 52.3585 114.968 52.3739Z" fill="#F07448"/>
<path d="M93.0787 26.5616C93.0811 27.127 92.6531 27.555 92.0847 27.555C91.5282 27.555 91.1056 27.1401 91.0997 26.5884C91.0931 26.0158 91.5074 25.5837 92.0722 25.5736C92.6222 25.5635 93.0763 26.0099 93.0787 26.5622V26.5616Z" fill="#F07448"/>
<path d="M136.909 19.252C136.904 18.6967 136.454 18.2545 135.903 18.2634L135.902 18.264C135.343 18.2729 134.915 18.7157 134.923 19.277C134.93 19.8174 135.376 20.2555 135.912 20.2496C136.475 20.243 136.915 19.8038 136.909 19.252Z" fill="#F07448"/>
<path d="M103.749 50.9371C103.737 51.4603 104.187 51.9079 104.734 51.9192H104.733C105.297 51.9305 105.738 51.5073 105.747 50.9443C105.757 50.4021 105.333 49.9604 104.786 49.9438C104.218 49.9271 103.761 50.3646 103.749 50.9371Z" fill="#F07448"/>
<path d="M126.14 8.96471C126.124 9.51407 125.686 9.94142 125.146 9.93309C124.592 9.92416 124.132 9.45574 124.155 8.92364C124.179 8.38796 124.64 7.93859 125.158 7.94574C125.702 7.95288 126.157 8.42368 126.14 8.96471Z" fill="#F07448"/>
<path d="M131.866 45.4203C131.305 45.4096 130.859 45.8405 130.854 46.3976H130.854C130.849 46.9666 131.278 47.4088 131.832 47.407C132.386 47.4052 132.825 46.9844 132.833 46.4464C132.841 45.8815 132.416 45.4304 131.866 45.4203Z" fill="#F07448"/>
<path d="M138.351 32.0475C138.906 32.0499 139.32 32.4724 139.32 33.0343C139.32 33.595 138.87 34.0414 138.319 34.0283C137.786 34.0158 137.35 33.5575 137.358 33.0171C137.365 32.4707 137.801 32.0451 138.352 32.0475H138.351Z" fill="#F07448"/>
<path d="M93.6935 41.2926C93.7019 41.842 94.1376 42.2729 94.6816 42.2699L94.6822 42.2693C95.2321 42.267 95.6702 41.8349 95.672 41.2938C95.6731 40.7486 95.2375 40.304 94.6976 40.3004C94.131 40.2969 93.6846 40.7379 93.6935 41.2926Z" fill="#F07448"/>
<path d="M119.498 54C118.948 54.0012 118.527 53.5726 118.53 53.0144C118.533 52.4596 118.954 52.0394 119.509 52.0376C120.064 52.0359 120.491 52.4584 120.494 53.0108C120.498 53.5822 120.078 53.9982 119.498 53.9994V54Z" fill="#F07448"/>
<path d="M98.1724 15.0375C98.7199 15.0285 99.1538 14.5905 99.152 14.0488C99.1503 13.4983 98.7176 13.0573 98.1777 13.0561C97.6349 13.0543 97.1826 13.4953 97.1802 14.028C97.1778 14.5863 97.6295 15.0464 98.1724 15.0375Z" fill="#F07448"/>
<path d="M240.363 23.7949H247.057C247.922 23.7949 248.677 23.886 249.322 24.0683C249.973 24.2506 250.515 24.5057 250.947 24.8338C251.384 25.1618 251.712 25.555 251.931 26.0132C252.15 26.4715 252.259 26.9766 252.259 27.5285C252.259 28.2107 252.098 28.8173 251.775 29.3485C251.452 29.8744 250.973 30.2936 250.338 30.606L252.775 35.4097H247.674L245.831 31.1918H244.878V35.4019H240.363V23.7949ZM245.151 29.7781C245.521 29.7781 245.852 29.726 246.143 29.6218C246.435 29.5177 246.682 29.3719 246.885 29.1844C247.088 28.9918 247.245 28.7652 247.354 28.5049C247.463 28.2393 247.518 27.9503 247.518 27.6379C247.518 27.3254 247.463 27.039 247.354 26.7787C247.245 26.5131 247.088 26.2866 246.885 26.0991C246.682 25.9065 246.435 25.7581 246.143 25.6539C245.852 25.5498 245.521 25.4977 245.151 25.4977H244.886L244.878 29.7781H245.151Z" fill="white"/>
<path d="M229.671 26.724L228.328 23.7949H233.084L238.771 35.4097H233.67L232.811 33.5507H228.234L227.382 35.4097H225.406L229.671 26.724ZM231.991 31.762L230.522 28.5752L229.062 31.762H231.991Z" fill="white"/>
<path d="M215.648 23.7949H220.171L220.163 33.6132H224.6V35.4019H215.648V23.7949Z" fill="white"/>
<path d="M204.956 26.724L203.613 23.7949H208.37L214.056 35.4097H208.955L208.096 33.5507H203.519L202.668 35.4097H200.691L204.956 26.724ZM207.276 31.762L205.808 28.5752L204.347 31.762H207.276Z" fill="white"/>
<path d="M192.226 25.5758H188.914V23.7871H200.052V25.5758H196.741V35.4019H192.226V25.5758Z" fill="white"/>
<path d="M174.539 29.5749C174.539 28.6949 174.68 27.8904 174.961 27.1614C175.242 26.4272 175.661 25.7971 176.218 25.2711C176.776 24.7452 177.471 24.3364 178.304 24.0448C179.137 23.7532 180.106 23.6074 181.21 23.6074C182.308 23.6074 183.274 23.7532 184.107 24.0448C184.941 24.3364 185.636 24.7452 186.193 25.2711C186.75 25.7971 187.169 26.4272 187.45 27.1614C187.732 27.8904 187.872 28.6949 187.872 29.5749C187.872 30.2571 187.789 30.895 187.622 31.4886C187.461 32.077 187.219 32.6108 186.896 33.0898C186.573 33.5689 186.167 33.9855 185.677 34.3396C185.193 34.6937 184.631 34.9749 183.99 35.1832C184.245 35.2665 184.571 35.3264 184.967 35.3628C185.362 35.3993 185.857 35.4149 186.451 35.4097H187.872L186.693 37.503C186.037 37.503 185.438 37.4639 184.896 37.3858C184.36 37.3129 183.873 37.1984 183.436 37.0421C183.003 36.8859 182.616 36.6854 182.272 36.4407C181.933 36.2012 181.631 35.9148 181.366 35.5815H181.21C180.106 35.5815 179.137 35.4357 178.304 35.1441C177.471 34.8525 176.776 34.4437 176.218 33.9178C175.661 33.3919 175.242 32.7592 174.961 32.0197C174.68 31.2803 174.539 30.4654 174.539 29.5749ZM181.21 33.9647C181.522 33.9647 181.798 33.91 182.038 33.8006C182.277 33.6913 182.478 33.4778 182.639 33.1601C182.8 32.8425 182.923 32.3973 183.006 31.8245C183.089 31.2517 183.131 30.5018 183.131 29.5749C183.131 28.6585 183.089 27.9164 183.006 27.3488C182.923 26.7812 182.8 26.3412 182.639 26.0288C182.478 25.7164 182.277 25.5055 182.038 25.3961C181.798 25.2868 181.522 25.2321 181.21 25.2321C180.897 25.2321 180.619 25.2868 180.374 25.3961C180.134 25.5055 179.934 25.7164 179.772 26.0288C179.611 26.3412 179.489 26.7812 179.405 27.3488C179.322 27.9164 179.28 28.6585 179.28 29.5749C179.28 30.5018 179.322 31.2517 179.405 31.8245C179.489 32.3973 179.611 32.8425 179.772 33.1601C179.934 33.4778 180.134 33.6913 180.374 33.8006C180.619 33.91 180.897 33.9647 181.21 33.9647Z" fill="white"/>
<path d="M162.16 23.7949H166.675V31.1684C166.675 31.585 166.73 31.9469 166.839 32.2541C166.953 32.5561 167.11 32.8087 167.308 33.0118C167.511 33.2096 167.748 33.358 168.018 33.457C168.289 33.5559 168.581 33.6054 168.893 33.6054C169.237 33.6054 169.544 33.5559 169.815 33.457C170.091 33.358 170.325 33.207 170.518 33.004C170.71 32.8009 170.859 32.5457 170.963 32.2385C171.067 31.9313 171.119 31.5694 171.119 31.1528V23.7949H172.838V30.8872C172.838 31.6058 172.72 32.2541 172.486 32.8321C172.257 33.4101 171.929 33.9048 171.502 34.3162C171.075 34.7223 170.559 35.0348 169.955 35.2535C169.351 35.4722 168.677 35.5815 167.932 35.5815C166.917 35.5815 166.045 35.4748 165.316 35.2613C164.587 35.0426 163.988 34.7328 163.519 34.3318C163.051 33.9256 162.707 33.4362 162.488 32.8634C162.27 32.2906 162.16 31.6449 162.16 30.9263V23.7949Z" fill="white"/>
<path d="M147.32 23.7949H150.148L157.514 29.9811L157.521 23.7949H159.24V35.4019H156.412L149.039 29.2391V35.4019H147.32V23.7949Z" fill="white"/>
</svg>
