<svg width="16" height="14" viewBox="0 0 16 14" fill="none" xmlns="http://www.w3.org/2000/svg">
<path fill-rule="evenodd" clip-rule="evenodd" d="M1.10677 0.25C0.630893 0.25 0.245117 0.585786 0.245117 1C0.245117 1.41421 0.630893 1.75 1.10677 1.75H14.8932C15.3691 1.75 15.7549 1.41421 15.7549 1C15.7549 0.585786 15.3691 0.25 14.8932 0.25H1.10677ZM1.10677 4.25C0.630893 4.25 0.245117 4.58579 0.245117 5C0.245117 5.41421 0.630893 5.75 1.10677 5.75H14.8932C15.3691 5.75 15.7549 5.41421 15.7549 5C15.7549 4.58579 15.3691 4.25 14.8932 4.25H1.10677ZM0.245117 9C0.245117 8.58579 0.630893 8.25 1.10677 8.25H14.8932C15.3691 8.25 15.7549 8.58579 15.7549 9C15.7549 9.41421 15.3691 9.75 14.8932 9.75H1.10677C0.630893 9.75 0.245117 9.41421 0.245117 9ZM1.10677 12.25C0.630893 12.25 0.245117 12.5858 0.245117 13C0.245117 13.4142 0.630893 13.75 1.10677 13.75H14.8932C15.3691 13.75 15.7549 13.4142 15.7549 13C15.7549 12.5858 15.3691 12.25 14.8932 12.25H1.10677Z" fill="#010A27"/>
</svg>
