<svg width="120" height="24" viewBox="0 0 120 24" fill="none" xmlns="http://www.w3.org/2000/svg">
<path fill-rule="evenodd" clip-rule="evenodd" d="M18.0202 12.4748C18.0202 14.68 17.5163 16.3232 16.5093 17.394C15.5022 18.4649 13.9467 19 11.8491 19C9.88953 19 8.40249 18.4646 7.38888 17.394C6.37497 16.3235 5.86816 14.7089 5.86816 12.5502V5.30779C5.86876 5.13795 6.00611 5.0006 6.17564 5H9.72894C9.89877 5.0006 10.0361 5.13795 10.0367 5.30779V12.7084C10.0367 13.5897 10.1997 14.2682 10.5316 14.7467C11.129 15.5387 12.2552 15.6963 13.0472 15.0989C13.166 15.0092 13.2733 14.9052 13.3663 14.789C13.6907 14.34 13.8522 13.6782 13.8513 12.8037V11.4179H18.0202V12.4748Z" fill="#203E7A"/>
<path fill-rule="evenodd" clip-rule="evenodd" d="M17.6978 10.6087H13.8516V5.32209C13.8522 5.14421 13.9961 5.0003 14.1737 5H14.7493C14.7505 6.80501 16.214 8.26767 18.019 8.26767H18.0199V10.6087H17.6975H17.6978Z" fill="#203E7A"/>
<path fill-rule="evenodd" clip-rule="evenodd" d="M15.5687 5.0003H17.6978C17.8756 5.00089 18.0196 5.14481 18.0199 5.32239V7.45425C16.666 7.45425 15.5684 6.35659 15.5684 5.00268V5L15.5687 5.0003Z" fill="#F4821F"/>
<path d="M41.2763 6.02185C43.4982 6.02185 45.72 6.02969 47.9416 6.01663C48.5517 6.01298 49.1619 6.00958 49.772 6.00201C49.8241 6.00123 49.8756 6.0088 49.9274 6.0135C50.1755 6.03517 50.24 6.23413 50.2897 6.44381C50.8145 8.64834 50.6479 10.9962 49.7155 13.0697C49.4669 13.6225 49.1634 14.1431 48.8279 14.645C48.5642 15.0395 48.2769 15.4163 47.9624 15.773C47.7279 16.039 47.4814 16.2931 47.2198 16.5304C46.7276 16.9772 46.2052 17.3848 45.5961 17.6647C45.2731 17.8133 44.9345 17.9062 44.582 17.9558C44.2306 18.0054 43.8777 18.0049 43.5252 17.9971C41.5772 17.9548 39.6292 17.9877 37.6811 17.9788C36.6728 17.9744 35.6641 17.9778 34.6558 17.9788C34.5503 17.9788 34.4465 17.9704 34.3471 17.9378C34.1404 17.8704 34.0152 17.6887 34.0035 17.4477C34.0001 17.3793 34.0011 17.3106 34.0011 17.2422C34.0011 13.7358 34.0011 10.2294 34.0011 6.72319C34.0011 6.62293 34.0032 6.52344 34.0227 6.42292C34.0698 6.18244 34.2604 6.03909 34.5022 6.02446C34.5863 6.01924 34.6709 6.02159 34.7552 6.02159C36.9289 6.02159 39.1023 6.02159 41.276 6.02107L41.2763 6.02185Z" fill="#2F4653"/>
<path d="M50.2235 15.5337C50.3446 15.5008 50.443 15.4313 50.5354 15.3572C50.9297 15.0412 51.2228 14.6415 51.4729 14.206C52.3746 12.6351 52.9056 10.8726 53.0097 9.05429C53.0204 8.86916 53.0214 8.68456 53.0271 8.49969C53.0279 8.47227 53.0209 8.44303 53.0448 8.41326C53.1164 8.43415 53.181 8.4694 53.2393 8.5211C53.9371 9.1415 54.0553 10.3196 53.9798 11.1904C53.8007 13.2519 52.6661 15.452 50.8443 16.5162C50.8024 16.5408 50.76 16.5646 50.717 16.5875C50.4357 16.7382 50.1434 16.8565 49.8425 16.9578C49.7857 16.9768 49.729 16.9962 49.6727 17.0152C49.9208 17.0014 50.2639 16.958 50.6525 16.8298C51.6916 16.4873 52.5193 15.7141 53.094 14.7989C53.2354 14.5739 53.3621 14.341 53.486 14.106C53.4936 14.0919 53.5011 14.077 53.5204 14.0728C53.5433 14.0733 53.5527 14.0916 53.5605 14.1096C53.8491 14.7786 53.7747 15.4645 53.3679 16.069C52.5669 17.2583 50.8745 17.9683 49.4749 17.974C48.1849 17.9792 46.8952 17.9777 45.6052 17.9774C45.5646 17.9774 45.5029 17.9988 45.4917 17.9414C45.4797 17.8803 45.5455 17.8876 45.5833 17.8704C47.5404 16.9677 49.0212 15.393 49.9864 13.4699C50.8251 11.7988 51.2465 9.90733 51.0822 8.03674C51.0297 7.4375 50.9188 6.84322 50.7483 6.26643C50.7381 6.2317 50.7238 6.19776 50.717 6.16225C50.6936 6.03796 50.7303 6.00663 50.8571 6.01916C51.1739 6.05023 51.4534 6.16799 51.7025 6.36461C52.1739 6.73669 52.3548 7.41139 52.4636 7.97852C52.6672 9.04071 52.4592 10.2173 52.2116 11.2565C51.8897 12.609 51.3462 13.9307 50.5624 15.0809C50.4789 15.2037 50.3823 15.3172 50.2925 15.4353C50.2683 15.4671 50.2464 15.5011 50.2235 15.5337Z" fill="url(#paint0_linear_135_3674)"/>
<path fill-rule="evenodd" clip-rule="evenodd" d="M47.3346 10.7855C47.5382 10.939 47.6881 11.1547 47.7615 11.3994C47.9711 12.1017 47.6558 12.9979 46.9015 13.196C46.78 13.2279 46.6548 13.2415 46.5298 13.2381C46.4051 13.2415 46.2799 13.2279 46.1581 13.196C45.4038 12.9979 45.0886 12.1017 45.2981 11.3994C45.3713 11.1547 45.5212 10.939 45.725 10.7855C45.9559 10.6116 46.2422 10.5205 46.5298 10.5137C46.8174 10.5205 47.1038 10.6116 47.3346 10.7855ZM46.5296 12.8775C46.9023 12.8736 47.1225 12.5161 47.2014 12.1835C47.2774 11.8631 47.2628 11.4858 47.084 11.1999C46.9601 11.0019 46.7495 10.8844 46.5293 10.8829C46.3093 10.8844 46.0985 11.0017 45.9746 11.1999C45.7958 11.4858 45.7817 11.8631 45.8577 12.1835C45.9366 12.5161 46.1568 12.8736 46.5296 12.8775Z" fill="url(#paint1_linear_135_3674)"/>
<path d="M39.0699 11.0734C39.0678 10.9066 39.0163 10.7387 38.8695 10.645C38.7266 10.5538 38.5366 10.5557 38.4241 10.6943L38.4199 10.6994C38.4101 10.7108 38.3963 10.7269 38.4012 10.7411C38.4048 10.7514 38.4202 10.7537 38.4348 10.7559C38.4434 10.7571 38.4517 10.7584 38.4572 10.7612C38.4827 10.774 38.4929 10.7995 38.4921 10.827C38.4914 10.848 38.491 10.9873 38.4905 11.2L38.4895 11.5823L37.3858 11.5758C37.3788 11.4842 37.3762 11.3813 37.3827 11.2695C37.3887 11.1664 37.402 11.0638 37.422 10.9625C37.4309 10.9181 37.441 10.874 37.4525 10.8304C37.4567 10.8141 37.4635 10.7966 37.4704 10.7785C37.484 10.7433 37.4983 10.7062 37.4959 10.6729C37.4954 10.6661 37.4939 10.6593 37.4897 10.6541C37.4798 10.6418 37.4608 10.6439 37.4457 10.6478C37.352 10.6719 37.2609 10.722 37.1891 10.787C37.1669 10.8069 37.1078 10.8633 37.0545 10.9593C36.9129 11.2137 36.9017 11.574 36.9017 11.574C36.8944 11.8069 36.8853 12.279 37.1328 12.7691C37.1328 12.7691 37.3062 13.1127 37.5542 13.1973C37.6032 13.214 37.6165 13.203 37.6206 13.1973C37.6362 13.1773 37.6122 13.1455 37.5959 13.124C37.592 13.1188 37.5886 13.1143 37.5863 13.1106C37.5636 13.0756 37.5444 13.0385 37.5277 13.0002C37.4933 12.921 37.4704 12.8372 37.4535 12.7529C37.4017 12.496 37.3681 12.2359 37.3754 11.9735H38.4895V12.9597C38.4895 13.025 38.516 13.0879 38.5762 13.1187C38.6123 13.1372 38.6535 13.1438 38.6938 13.1487C38.7643 13.1576 38.8364 13.1623 38.9062 13.1487C38.9471 13.1409 38.9879 13.126 39.0184 13.0976C39.0676 13.0519 39.0684 12.9897 39.0684 12.9273C39.0684 12.6987 39.0694 12.4701 39.0704 12.2415C39.0715 11.9748 39.0727 11.7081 39.0723 11.4413C39.0723 11.3184 39.0712 11.1964 39.0699 11.0734Z" fill="url(#paint2_linear_135_3674)"/>
<path d="M37.5435 13.3217C37.094 13.1899 36.9185 12.7121 36.8225 12.2977C36.8017 12.2073 36.7816 12.1183 36.7696 12.0261C36.7337 11.7475 36.7353 11.4412 36.8253 11.1723C36.7703 11.1846 36.7395 11.2251 36.7088 11.2655C36.7011 11.2755 36.6935 11.2855 36.6856 11.295C36.539 11.4705 36.5276 11.6755 36.5205 11.8791C36.5039 12.3575 36.678 12.6977 36.7168 12.7708C36.8043 12.935 36.8995 13.0431 36.9276 13.0742C37.0276 13.1852 37.1281 13.2622 37.2051 13.3134C37.1439 13.2982 37.0575 13.2698 36.9651 13.2126C36.8795 13.1596 36.8183 13.1006 36.7782 13.0554C36.7202 12.981 36.6793 12.9155 36.6528 12.869C36.5812 12.7447 36.4922 12.5899 36.4469 12.3823L36.4416 12.3573C36.4314 12.3082 36.4222 12.2644 36.4026 12.2624C36.3699 12.2591 36.3331 12.3746 36.3245 12.4016C36.2985 12.4838 36.2917 12.5606 36.292 12.6008C36.2938 12.7575 36.411 13.0622 36.6908 13.269C36.6908 13.269 36.9354 13.4497 37.354 13.4635C37.3712 13.464 37.4724 13.4617 37.5477 13.4077C37.5846 13.381 37.6091 13.3408 37.5435 13.3217Z" fill="url(#paint3_linear_135_3674)"/>
<path d="M44.8019 10.7701C44.8225 10.8725 44.8243 10.9576 44.8225 11.015C44.8441 11.6728 44.8654 12.33 44.8868 12.9877C44.886 12.9987 44.8839 13.0138 44.8779 13.0308C44.8443 13.1272 44.7228 13.1744 44.6288 13.1757C44.5341 13.177 44.4208 13.1319 44.3808 13.0446C44.3802 13.0436 44.373 13.0266 44.369 13.0078C44.3412 12.8739 44.3251 11.7955 44.3191 11.3255C44.0624 11.8529 43.8615 12.2472 43.7688 12.4211C43.7498 12.4569 43.7097 12.5287 43.6355 12.5532C43.6142 12.5605 43.5905 12.5647 43.5663 12.5647C43.5421 12.5645 43.5184 12.5605 43.4971 12.5532C43.4229 12.5287 43.3825 12.4569 43.3638 12.4211C43.2709 12.2472 43.0702 11.8529 42.8135 11.3255C42.8076 11.7952 42.7914 12.8739 42.7636 13.0078C42.7597 13.0266 42.7524 13.0436 42.7519 13.0446C42.7118 13.1319 42.5985 13.177 42.5038 13.1757C42.4101 13.1744 42.2883 13.1272 42.2547 13.0308C42.2487 13.0138 42.2466 12.9987 42.2458 12.9877C42.2674 12.33 42.2888 11.6728 42.3101 11.015C42.3083 10.9579 42.3104 10.8727 42.3307 10.7701L42.3318 10.7637C42.3339 10.7506 42.3375 10.7282 42.3487 10.7028C42.3557 10.6863 42.3755 10.6427 42.4215 10.6129C42.4465 10.5973 42.4739 10.5881 42.503 10.5881C42.5119 10.5882 42.5208 10.5886 42.5297 10.5889C42.541 10.5893 42.5523 10.5897 42.5637 10.5897L42.5974 10.5902C42.6143 10.5905 42.6311 10.5907 42.648 10.5907C42.6672 10.5909 42.6864 10.5909 42.7057 10.5909C42.741 10.5909 42.7763 10.5909 42.8117 10.592C42.8609 10.5939 42.9067 10.6106 42.9413 10.6474C42.9827 10.691 43.0158 10.7532 43.0704 10.8863C43.0796 10.9085 43.0868 10.927 43.0918 10.9398L43.0928 10.9419C43.1204 11.0018 43.4082 11.6264 43.5176 11.8091C43.5257 11.8229 43.5437 11.8524 43.5663 11.8514C43.5887 11.8524 43.6069 11.8229 43.615 11.8091C43.7237 11.6283 44.007 11.0132 44.039 10.9437L44.0408 10.9398C44.0458 10.927 44.0531 10.9082 44.0622 10.8863C44.1168 10.7532 44.1499 10.691 44.1913 10.6474C44.2261 10.6106 44.272 10.5939 44.3209 10.592C44.3563 10.5907 44.3917 10.5908 44.4272 10.5908C44.4464 10.5909 44.4655 10.5909 44.4846 10.5907L44.5184 10.5903C44.5352 10.59 44.5521 10.5897 44.569 10.5897C44.5789 10.5897 44.589 10.5893 44.5991 10.5889C44.6092 10.5885 44.6194 10.5881 44.6296 10.5881C44.6588 10.5879 44.6863 10.5973 44.7111 10.6129C44.7571 10.6427 44.7769 10.6863 44.784 10.7028C44.7951 10.7282 44.7987 10.7506 44.8008 10.7637L44.8019 10.7701Z" fill="url(#paint4_linear_135_3674)"/>
<path d="M41.7341 10.6664C41.6807 10.5987 41.5896 10.5961 41.5019 10.5938C41.4189 10.5914 41.3132 10.5885 41.2471 10.6622C41.2104 10.7032 41.2002 10.7515 41.1971 10.7807L41.1924 12.2367C41.1932 12.2842 41.1885 12.3737 41.1406 12.4722C41.0901 12.5761 41.0185 12.6351 41.0003 12.6495C41.0003 12.6495 40.8785 12.7461 40.7192 12.7589C40.7033 12.7602 40.6864 12.7607 40.6864 12.7607C40.6822 12.7607 40.6781 12.7607 40.6739 12.761C40.6697 12.761 40.6656 12.761 40.6614 12.7607C40.6614 12.7607 40.6448 12.7602 40.6286 12.7589C40.4693 12.7458 40.3475 12.6495 40.3475 12.6495C40.329 12.6349 40.2577 12.5761 40.2072 12.4722C40.1593 12.3737 40.1546 12.2842 40.1554 12.2367L40.1507 10.7807C40.1476 10.7515 40.1377 10.7032 40.1007 10.6622C40.0346 10.5885 39.9289 10.5914 39.8459 10.5938C39.7585 10.5961 39.6671 10.5987 39.6137 10.6664C39.5718 10.7194 39.5752 10.7849 39.5786 10.8134V12.3372C39.5786 12.479 39.6192 12.6667 39.7548 12.845C39.9071 13.0453 40.1234 13.1346 40.19 13.1594C40.3251 13.2098 40.4581 13.2239 40.4987 13.2278C40.5693 13.2349 40.6294 13.2351 40.6739 13.2338C40.7184 13.2351 40.7785 13.2349 40.8491 13.2278C40.8897 13.2237 41.0227 13.2096 41.1578 13.1594C41.2244 13.1346 41.4407 13.0453 41.593 12.845C41.7283 12.6667 41.7692 12.479 41.7692 12.3372V10.8134C41.7726 10.7849 41.776 10.7194 41.7341 10.6664Z" fill="url(#paint5_linear_135_3674)"/>
<path d="M67.2877 9.72596C66.7646 9.43903 66.1675 9.20826 65.5 9.04812L65.528 8.92341H68.265C68.636 8.93641 68.937 9.04803 69.0349 9.44223L69.6298 12.2781L69.812 13.1322L71.478 8.92341H73.2768L70.6029 15.0891H68.804L67.2877 9.72596ZM74.6 15.0956H72.8988L73.9628 8.92341H75.6639L74.6 15.0956ZM80.7668 9.0743L80.5354 10.4071L80.3816 10.3416C80.0737 10.2168 79.6674 10.0921 79.1144 10.1052C78.4427 10.1052 78.1415 10.3743 78.1345 10.637C78.1345 10.9259 78.4989 11.1164 79.0939 11.3988C80.074 11.8387 80.5286 12.3771 80.5218 13.0797C80.5081 14.3602 79.346 15.1876 77.5611 15.1876C76.7979 15.1809 76.0628 15.0296 75.6638 14.8591L75.9019 13.4736L76.1259 13.5722C76.6789 13.8022 77.0428 13.9005 77.722 13.9005C78.2118 13.9005 78.7369 13.7099 78.7436 13.2964C78.7436 13.0272 78.5199 12.83 77.8617 12.528C77.2178 12.2324 76.3568 11.74 76.3708 10.8535C76.3781 9.65195 77.5611 8.81152 79.241 8.81152C79.899 8.81152 80.4312 8.94941 80.7668 9.0743ZM83.0278 12.909H84.4417C84.3718 12.6004 84.0496 11.123 84.0496 11.123L83.9307 10.5912C83.8467 10.821 83.6999 11.1953 83.7069 11.1821C83.7069 11.1821 83.1678 12.5544 83.0278 12.909ZM85.1276 8.92341L86.5 15.0955H84.9249C84.9249 15.0955 84.7708 14.3863 84.7219 14.1696H82.5378C82.4746 14.3337 82.1808 15.0955 82.1808 15.0955H80.3958L82.9226 9.43551C83.0977 9.03494 83.406 8.92341 83.8118 8.92341H85.1276Z" fill="#171E6C"/>
<path d="M104.625 17.625C107.732 17.625 110.25 15.1066 110.25 12C110.25 8.8934 107.732 6.375 104.625 6.375C101.518 6.375 99 8.8934 99 12C99 15.1066 101.518 17.625 104.625 17.625Z" fill="#EB001B"/>
<path d="M111.375 17.625C114.482 17.625 117 15.1066 117 12C117 8.8934 114.482 6.375 111.375 6.375C108.268 6.375 105.75 8.8934 105.75 12C105.75 15.1066 108.268 17.625 111.375 17.625Z" fill="#F79E1B"/>
<path fill-rule="evenodd" clip-rule="evenodd" d="M108 7.5C109.366 8.52623 110.25 10.1601 110.25 12.0004C110.25 13.8407 109.366 15.4746 108 16.5008C106.634 15.4746 105.75 13.8407 105.75 12.0004C105.75 10.1601 106.634 8.52623 108 7.5Z" fill="#FF5F00"/>
<defs>
<linearGradient id="paint0_linear_135_3674" x1="44.5463" y1="13.8221" x2="54.2401" y2="10.8557" gradientUnits="userSpaceOnUse">
<stop offset="0.33" stop-color="#9C8837"/>
<stop offset="0.56" stop-color="#F7E59E"/>
<stop offset="0.6" stop-color="#F0DE96"/>
<stop offset="0.67" stop-color="#DECB80"/>
<stop offset="0.75" stop-color="#C0AC5D"/>
<stop offset="0.79" stop-color="#B39F4D"/>
</linearGradient>
<linearGradient id="paint1_linear_135_3674" x1="35.0126" y1="12.4381" x2="38.7645" y2="6.12685" gradientUnits="userSpaceOnUse">
<stop offset="0.33" stop-color="#9C8837"/>
<stop offset="0.56" stop-color="#F7E59E"/>
<stop offset="0.6" stop-color="#F0DE96"/>
<stop offset="0.67" stop-color="#DECB80"/>
<stop offset="0.75" stop-color="#C0AC5D"/>
<stop offset="0.79" stop-color="#B39F4D"/>
</linearGradient>
<linearGradient id="paint2_linear_135_3674" x1="35.0126" y1="12.4381" x2="38.7645" y2="6.12685" gradientUnits="userSpaceOnUse">
<stop offset="0.33" stop-color="#9C8837"/>
<stop offset="0.56" stop-color="#F7E59E"/>
<stop offset="0.6" stop-color="#F0DE96"/>
<stop offset="0.67" stop-color="#DECB80"/>
<stop offset="0.75" stop-color="#C0AC5D"/>
<stop offset="0.79" stop-color="#B39F4D"/>
</linearGradient>
<linearGradient id="paint3_linear_135_3674" x1="35.0126" y1="12.4381" x2="38.7645" y2="6.12685" gradientUnits="userSpaceOnUse">
<stop offset="0.33" stop-color="#9C8837"/>
<stop offset="0.56" stop-color="#F7E59E"/>
<stop offset="0.6" stop-color="#F0DE96"/>
<stop offset="0.67" stop-color="#DECB80"/>
<stop offset="0.75" stop-color="#C0AC5D"/>
<stop offset="0.79" stop-color="#B39F4D"/>
</linearGradient>
<linearGradient id="paint4_linear_135_3674" x1="35.0126" y1="12.4381" x2="38.7645" y2="6.12685" gradientUnits="userSpaceOnUse">
<stop offset="0.33" stop-color="#9C8837"/>
<stop offset="0.56" stop-color="#F7E59E"/>
<stop offset="0.6" stop-color="#F0DE96"/>
<stop offset="0.67" stop-color="#DECB80"/>
<stop offset="0.75" stop-color="#C0AC5D"/>
<stop offset="0.79" stop-color="#B39F4D"/>
</linearGradient>
<linearGradient id="paint5_linear_135_3674" x1="35.0126" y1="12.4381" x2="38.7645" y2="6.12685" gradientUnits="userSpaceOnUse">
<stop offset="0.33" stop-color="#9C8837"/>
<stop offset="0.56" stop-color="#F7E59E"/>
<stop offset="0.6" stop-color="#F0DE96"/>
<stop offset="0.67" stop-color="#DECB80"/>
<stop offset="0.75" stop-color="#C0AC5D"/>
<stop offset="0.79" stop-color="#B39F4D"/>
</linearGradient>
</defs>
</svg>
