<svg width="18" height="20" viewBox="0 0 18 20" fill="none" xmlns="http://www.w3.org/2000/svg">
<path d="M8.34584 2.89812e-07H12.24C13.7616 2.89812e-07 15.0627 0.947789 15.5896 2.28743C14.7088 2.16854 13.6114 2.1686 12.3348 2.16867H9.2652C7.98867 2.1686 6.88877 2.16854 6.00798 2.28743C5.06404 2.41485 4.15921 2.7022 3.4253 3.43906C2.69139 4.17592 2.40519 5.08438 2.27828 6.03211C2.15986 6.91644 2.15993 8.02074 2.16 9.3024V14.312C2.15994 15.3737 2.15989 16.6498 2.22717 17.5592C0.919953 17.0174 2.88734e-07 15.725 2.88734e-07 14.2169V8.37935C-1.42668e-05 6.60802 -2.57939e-05 5.205 0.14701 4.10697C0.298333 2.97692 0.617166 2.06227 1.33559 1.34096C2.05402 0.619644 2.96501 0.299532 4.09054 0.147601C5.18418 -2.58982e-05 6.5816 -1.43214e-05 8.34584 2.89812e-07Z" fill="#010A27"/>
<path d="M4.44314 4.46118C3.59961 5.3081 3.59961 6.6712 3.59961 9.39739V14.2167C3.59961 16.9429 3.59961 18.306 4.44314 19.1529C5.28667 19.9998 6.64432 19.9998 9.35961 19.9998H12.2396C14.9549 19.9998 16.3125 19.9998 17.1561 19.1529C17.9996 18.306 17.9996 16.9429 17.9996 14.2167V9.39739C17.9996 6.67121 17.9996 5.3081 17.1561 4.46118C16.3125 3.61426 14.9549 3.61426 12.2396 3.61426H9.35961C6.64432 3.61426 5.28667 3.61426 4.44314 4.46118Z" fill="#010A27"/>
</svg>
