<svg width="101" height="101" viewBox="0 0 101 101" fill="none" xmlns="http://www.w3.org/2000/svg">
<path d="M50.4427 43.2892C46.6897 39.6676 43.0305 35.9565 39.0284 31.964C47.7321 29.8669 55.9137 30.0466 64.0061 32.5399C75.5501 36.0934 84.3227 43.195 90.7413 53.3887C91.5796 54.7201 93.0522 55.972 94.5118 56.5277C96.4688 57.2713 98.3751 56.4004 99.6031 54.5979C101.01 52.5274 100.582 50.5222 99.3779 48.461C86.1013 25.7302 58.5416 15.1601 33.3405 23.2406C31.6272 23.7911 30.5775 23.617 29.2879 22.2947C23.6257 16.4878 17.8726 10.7673 12.1213 5.04819L12.0772 5.00407L9.60182 2.54297C7.04651 0.00603607 4.10514 -0.168148 1.95978 2.02041C-0.186504 4.20392 0.0488053 7.06073 2.59033 9.66798L2.79623 9.87801L3.24111 10.322L3.58305 10.6611C22.4694 29.5562 41.3594 48.4472 60.2412 67.328C70.5709 77.6582 80.9107 87.9741 91.2267 98.3186C92.6146 99.707 94.0973 100.766 96.1682 100.441C98.1867 100.121 99.5939 98.9914 100.234 97.0198C100.945 94.8266 100.159 93.076 98.6012 91.5226C90.6384 83.5786 82.6893 75.6204 74.7403 67.6626C74.6291 67.5514 74.5197 67.4388 74.4103 67.3248C74.1419 67.0431 73.8763 66.7512 73.6014 66.4493L73.2034 66.0127L72.9709 65.7613C78.9106 64.542 80.2986 60.6405 76.5005 56.1416C70.2464 48.7386 62.2882 44.616 52.5835 43.9055C51.85 43.8536 50.918 43.7502 50.4427 43.2892Z" fill="#010A27" fill-opacity="0.4"/>
<path d="M50.5935 90.4922C56.104 90.4734 60.5142 85.9933 60.4811 80.435C60.448 74.8961 55.9964 70.5194 50.4244 70.5617C44.8615 70.604 40.4844 75.056 40.5505 80.6046C40.6158 86.1909 45.0021 90.5111 50.5935 90.4922Z" fill="#010A27" fill-opacity="0.4"/>
<path d="M15.2594 32.8791L22.5209 39.8772C17.1602 43.934 12.9715 48.9743 9.49428 54.6732C8.1054 56.9514 5.06108 57.3747 2.86333 55.9959C0.655463 54.6075 -0.186504 51.8546 1.12608 49.4541C4.72191 42.8843 9.58344 37.378 15.2594 32.8791Z" fill="#010A27" fill-opacity="0.4"/>
<path d="M34.7818 52.0664L31.7071 48.9973C30.8486 49.8788 29.9846 50.7442 29.127 51.6032C27.1517 53.5822 25.2095 55.5285 23.4336 57.6192C21.6366 59.7416 22.1725 62.6264 24.2011 64.3255C26.2298 66.0292 29.0342 65.8927 30.9828 63.9817C33.6319 61.3887 36.2727 58.7911 38.9218 56.1931C37.6607 54.9375 36.3039 53.5858 34.7818 52.0664Z" fill="#010A27" fill-opacity="0.4"/>
</svg>
